<svg width="151" height="19" viewBox="0 0 151 19" fill="none" xmlns="http://www.w3.org/2000/svg">
<path d="M17.8823 0.543945L10.4727 18H7.97021L0.523926 0.543945H2.9043L9.30078 15.6562L15.5386 0.543945H17.8823ZM22.8872 0.543945V18H20.6289V0.543945H22.8872ZM38.8296 0.543945V2.375H29.6743V8.23438H38.4023V10.0654H29.6743V16.1689H39.0127V18H27.416V0.543945H38.8296ZM54.2104 0.543945V2.375H48.7173V18H46.459V2.375H40.9658V0.543945H54.2104ZM59.1665 0.543945V16.1689H68.2974V18H56.9082V0.543945H59.1665ZM73.6196 0.543945V18H71.3613V0.543945H73.6196ZM89.9282 0.543945V2.375H84.4351V18H82.1768V2.375H76.6836V0.543945H89.9282Z" fill="white"/>
<path d="M111.913 17.3896C110.408 17.8779 108.78 18.1221 107.03 18.1221C100.927 18.1221 97.875 15.0907 97.875 9.02783C97.875 3.29053 100.927 0.421875 107.03 0.421875C108.78 0.421875 110.408 0.666016 111.913 1.1543V3.10742C110.408 2.53776 108.861 2.25293 107.274 2.25293C102.514 2.25293 100.133 4.51123 100.133 9.02783C100.133 13.87 102.514 16.291 107.274 16.291C108.861 16.291 110.408 16.0062 111.913 15.4365V17.3896ZM115.648 18V0.543945H118.517L124.926 15.1069L131.212 0.543945H133.959V18H131.945V3.68115L125.744 18H123.961L117.663 3.68115V18H115.648ZM137.865 17.3896V15.3145C139.696 15.9655 141.674 16.291 143.798 16.291C146.801 16.291 148.302 15.1924 148.302 12.9951C148.302 11.1234 147.195 10.1875 144.982 10.1875H142.736C139.082 10.1875 137.255 8.60059 137.255 5.42676C137.255 2.09017 139.595 0.421875 144.274 0.421875C146.308 0.421875 148.201 0.666016 149.95 1.1543V3.22949C148.201 2.57845 146.308 2.25293 144.274 2.25293C141.1 2.25293 139.513 3.31087 139.513 5.42676C139.513 7.2985 140.587 8.23438 142.736 8.23438H144.982C148.701 8.23438 150.561 9.82129 150.561 12.9951C150.561 16.4131 148.306 18.1221 143.798 18.1221C141.674 18.1221 139.696 17.8779 137.865 17.3896Z" fill="#E7505A"/>
</svg>
